# xmcd
#
# Track frame offsets: 
#        150
#        17618
#        45347
#
# Disc length: 1200 seconds
#
# Revision: 0
# Processed by: cddbd v1.5.1PL0 Copyright (c) Steve Scherf et al.
# Submitted via: ExactAudioCopy v0.95a5
#
DISCID=1504ae03
DTITLE=Joss Stone - Super Duper Love (Are You Diggin On Me?) Pt.1 (2-t
DTITLE=rack-single)
DYEAR=2004
DGENRE=Blues
TTITLE0=Super Duper Love (Are You Diggin On Me?) Pt.1 (single mix)
TTITLE1=It's a Man's Man's World (live)
TTITLE2=Data
EXTD=
EXTT0=
EXTT1=
EXTT2=
PLAYORDER=
